<svg enable-background="new 0 0 110 110" height="512" viewBox="0 0 110 110" width="512" xmlns="http://www.w3.org/2000/svg"><path d="m55.3579102 104.6482544-.0136719-2c1.9101562-.0134277 3.8334961-.1413574 5.7158203-.380249l.2519531 1.9841309c-1.9609375.2487792-3.9643555.38208-5.9541015.3961181zm-5.9594727-.3112793c-1.9741211-.2216797-3.953125-.5655518-5.8808594-1.0219727l.4609375-1.9462891c1.8496094.4379883 3.7485352.7679443 5.6435547.9807129zm17.7792969-1.1920166-.4892578-1.939209c1.8461914-.4656982 3.6831055-1.0490723 5.4589844-1.7342529l.7197266 1.8659668c-1.8510743.7141113-3.7651368 1.3222656-5.6894532 1.8074951zm-29.3789063-1.5559082c-1.8608398-.6875-3.7006836-1.4963379-5.4667969-2.4042969l.9140625-1.7788086c1.6948242.8712158 3.4599609 1.6473389 5.2460938 2.3068848zm40.4980469-2.7333984-.9394531-1.7655029c1.6787109-.8935547 3.3217773-1.8994141 4.8842773-2.9897461l1.1445312 1.6401367c-1.6279296 1.1359863-3.3398437 2.184082-5.0893554 3.1151123zm-51.1020508-2.7153321c-1.6416016-1.1113281-3.234375-2.335083-4.734375-3.637207l1.3115234-1.5102539c1.4394531 1.25 2.9682617 2.4245605 4.5439453 3.4912109zm60.8710938-4.1021728-1.3320312-1.4916992c1.4194336-1.2674561 2.777832-2.6352539 4.0375977-4.0653076l1.5009766 1.3220215c-1.3125002 1.4898681-2.7280275 2.9146728-4.2065431 4.2349853zm-69.8696289-3.7104492c-1.3334961-1.4710693-2.590332-3.0368652-3.7363281-4.6539307l1.6318359-1.15625c1.0996094 1.552002 2.3061523 3.0550537 3.5859375 4.4671631zm77.7475586-5.2322999-1.6484375-1.1330566c1.0805664-1.5718994 2.0756836-3.2233887 2.9575195-4.9085693l1.7724609.9272461c-.9189453 1.7559814-1.9560547 3.4766845-3.0815429 5.1143798zm-84.6357422-4.4882812c-.9443359-1.7438965-1.7919922-3.5632324-2.519043-5.4073486l1.8603516-.7338867c.6982422 1.7696533 1.5112305 3.5155029 2.4174805 5.1890869zm90.1606445-6.0755615-1.8710938-.7070312c.6728516-1.7802734 1.2436523-3.6220703 1.6962891-5.4742432l1.9423828.4748535c-.4716797 1.930542-1.0664062 3.8504638-1.7675781 5.7064209zm-94.5292969-5.008667c-.4985352-1.918457-.8852539-3.8890991-1.1499023-5.8573608l1.9824219-.2662354c.253418 1.8887329.625 3.7797852 1.1030273 5.6206665zm97.3618164-6.5713501-1.9858398-.2375488c.2250977-1.8834839.3393555-3.8076782.3393555-5.7191772 0-.463623-.0068359-.9257202-.0195312-1.3861694l1.9990234-.0560913c.0136719.4790649.0205078.9598389.0205078 1.4422607 0 1.9906005-.1191407 3.9947509-.3535157 5.956726zm-98.9506836-5.2359619-.0053711-.718689c0-1.7511597.0917969-3.5144043.2734375-5.2427979l1.9892578.2088623c-.1743164 1.6593018-.2626953 3.3522949-.2626953 5.0318604l.0053711.6917114zm96.7792969-7.8133545c-.28125-1.8859253-.6801758-3.7712402-1.1850586-5.6036987l1.9277344-.5316162c.5268555 1.9099121.9423828 3.8748169 1.2358398 5.8401489zm-93.5830078-3.5900269-1.9492188-.4462891c.4433594-1.9374389 1.0097657-3.8659057 1.6840821-5.7317504l1.8808594.6794434c-.6464844 1.7899169-1.1899415 3.6398925-1.6157227 5.4985961zm90.543457-7.4333496c-.7226562-1.7580566-1.5615234-3.4916992-2.4926758-5.152832l1.7441406-.9781494c.9707031 1.7312622 1.8452148 3.538147 2.5981445 5.3705444zm-86.6596679-3.328186-1.7851562-.9012451c.8930664-1.7692261 1.9042969-3.5048828 3.0068359-5.1588135l1.6640625 1.1091309c-1.0576172 1.5873413-2.0288086 3.2530517-2.8857422 4.9509277zm81.071289-6.6429444c-1.1220703-1.5359497-2.3505859-3.0213013-3.6503906-4.4147949l1.4619141-1.3643799c1.3544922 1.4516602 2.6342773 2.9990234 3.8037109 4.5991821zm-74.7270508-2.8771972-1.5195312-1.300354c1.2900391-1.5073853 2.684082-2.9525146 4.1445312-4.2952881l1.3535156 1.472168c-1.4013671 1.2890625-2.7402343 2.6763916-3.9785156 4.1234741zm66.9243165-5.486145c-1.4580078-1.2290649-3.0039062-2.3813477-4.5942383-3.4247437l1.0966797-1.6723633c1.6572266 1.0870972 3.2680664 2.2875366 4.7866211 3.5679321zm-58.5048829-2.2557373-1.1679688-1.623291c1.6113281-1.1596069 3.3081055-2.2323608 5.043457-3.1885986l.9648438 1.7516479c-1.665039.9177246-3.2939452 1.9473266-4.840332 3.0602417zm48.9384766-4.0184937c-1.7084961-.8466187-3.4848633-1.5967407-5.2792969-2.2296753l.6650391-1.8861084c1.8701172.6596069 3.7216797 1.4414062 5.5019531 2.3236694zm-38.9267578-1.4973145-.7470703-1.8551636c1.8413086-.7416992 3.746582-1.3779297 5.6625977-1.8909302l.5175781 1.9319458c-1.838379.4921876-3.666504 1.1026002-5.4331055 1.814148zm28.137207-2.307373c-1.855957-.4105835-3.7592773-.7127075-5.6577148-.8979492l.1943359-1.9905396c1.9780273.1929932 3.9614258.5078125 5.8950195.93573zm-17.0917969-.6512451-.2802734-1.9802246c1.9575195-.2774658 3.9580078-.4396973 5.9458008-.4822388l.0429688 1.9995117c-1.9086915.0408936-3.8291016.1965943-5.7084962.4629517z" fill="#ededed"/><path d="m23.2660179 36.6734047v36.6431923l31.7338867 18.3214111v-73.2863884z" fill="#344d5b"/><path d="m54.9999046 18.3516197v73.2863884l31.7339821-18.3214111v-36.6431923z" fill="#304551"/><path d="m54.9999046 18.3516197-31.7338867 18.321785 31.7338867 18.3214073 31.7338906-18.3214073z" fill="#467082"/><path d="m73.1587982 65.4787216v-20.9680328l-18.1588173-10.4839096v41.9360656z" fill="#299b77"/><path d="m54.9999809 75.9628448v-41.9360656l-18.1588783 10.4839096v20.9680328z" fill="#44d666"/><path d="m54.9999809 75.9628448 18.1588173-10.4841232-18.1588173-10.4839096-18.1588211 10.4839096z" fill="#21ba45"/></svg>