<?xml version="1.0" standalone="no"?>
<!DOCTYPE svg PUBLIC "-//W3C//DTD SVG 20010904//EN"
 "http://www.w3.org/TR/2001/REC-SVG-20010904/DTD/svg10.dtd">
<svg version="1.0" xmlns="http://www.w3.org/2000/svg"
 width="700.000000pt" height="700.000000pt" viewBox="0 0 700.000000 700.000000"
 preserveAspectRatio="xMidYMid meet">
<metadata>
Created by potrace 1.11, written by Peter Selinger 2001-2013
</metadata>
<g transform="translate(0.000000,700.000000) scale(0.100000,-0.100000)"
fill="#000000" stroke="none">
<path d="M3297 6654 c-1 -1 -41 -5 -88 -9 -47 -3 -95 -8 -105 -10 -11 -2 -27
-4 -36 -4 -13 -1 -16 -7 -13 -28 9 -46 13 -77 14 -91 1 -8 10 -10 24 -7 36 8
105 14 222 21 61 3 111 7 112 8 3 3 5 35 4 78 l-1 47 -65 -2 c-36 -1 -67 -2
-68 -3z"/>
<path d="M3809 6628 c0 -13 -2 -42 -5 -65 -7 -48 -15 -44 126 -62 92 -12 123
-17 185 -31 22 -5 40 -8 41 -7 3 3 32 122 30 124 -3 4 -239 43 -296 48 -36 4
-68 9 -72 12 -5 2 -8 -6 -9 -19z"/>
<path d="M2523 6506 c-73 -24 -148 -51 -168 -60 l-35 -17 16 -37 c9 -20 18
-45 21 -54 7 -24 10 -24 133 22 59 21 118 41 131 44 38 7 89 27 89 34 -1 32
-29 107 -41 109 -8 1 -73 -17 -146 -41z"/>
<path d="M4532 6425 c-23 -58 -22 -75 3 -75 11 0 143 -55 300 -126 10 -4 69
105 61 113 -6 6 -258 115 -286 123 -14 4 -32 11 -41 14 -12 5 -21 -6 -37 -49z"/>
<path d="M1909 6231 c-77 -45 -249 -160 -249 -166 0 -11 65 -95 73 -95 5 0 30
15 56 34 60 44 229 146 241 146 6 0 -3 27 -20 60 -17 33 -31 60 -33 60 -1 0
-32 -18 -68 -39z"/>
<path d="M5198 6094 c-16 -25 -28 -49 -28 -54 0 -5 28 -28 63 -51 66 -46 118
-84 181 -136 l39 -32 38 42 c21 23 38 47 38 52 0 16 -277 226 -297 225 -4 0
-19 -21 -34 -46z"/>
<path d="M1298 5765 c-34 -33 -94 -94 -131 -135 l-69 -74 48 -42 48 -43 50 56
c28 31 86 91 128 132 l77 76 -44 46 -43 46 -64 -62z"/>
<path d="M3335 5741 c-82 -48 -487 -283 -900 -521 -412 -238 -796 -460 -852
-492 l-103 -60 0 -1163 c0 -1094 1 -1163 18 -1177 9 -8 71 -45 137 -83 114
-65 215 -123 810 -467 138 -80 270 -156 295 -170 25 -14 187 -107 360 -208
173 -100 334 -193 358 -206 l42 -25 173 100 c94 54 271 156 392 226 121 70
308 178 415 240 107 61 267 154 355 205 88 51 247 142 353 204 105 61 213 124
240 139 26 15 57 33 70 39 l22 11 0 1167 0 1167 -95 57 c-52 31 -97 56 -99 56
-2 0 -33 17 -67 38 -35 22 -84 50 -109 64 -25 14 -85 49 -135 78 -49 29 -108
63 -130 75 -22 13 -341 197 -708 409 -368 212 -674 386 -680 385 -7 0 -79 -40
-162 -88z"/>
<path d="M5761 5608 l-42 -41 28 -31 c15 -16 33 -35 38 -41 21 -24 85 -102
125 -153 l41 -53 45 33 c25 18 47 35 50 39 7 12 -218 289 -236 289 -4 0 -26
-19 -49 -42z"/>
<path d="M826 5183 c-43 -68 -146 -249 -146 -258 0 -6 96 -55 108 -55 4 0 16
17 26 38 10 20 49 90 88 155 38 65 68 120 66 121 -2 2 -24 17 -50 35 l-48 32
-44 -68z"/>
<path d="M6205 5015 c-22 -14 -44 -26 -48 -28 -5 -1 26 -72 67 -157 42 -85 76
-160 76 -166 0 -9 19 -5 58 11 47 19 57 28 54 45 -3 29 -144 313 -157 316 -5
2 -28 -8 -50 -21z"/>
<path d="M497 4488 c-36 -112 -78 -271 -72 -276 5 -5 118 -32 121 -29 1 1 4
16 7 32 8 46 44 172 71 247 l25 67 -55 21 c-30 11 -58 20 -62 20 -4 0 -20 -37
-35 -82z"/>
<path d="M6473 4323 l-51 -15 13 -47 c8 -25 25 -104 39 -175 14 -71 27 -130
28 -132 3 -2 121 16 124 19 2 4 -36 193 -57 280 -12 48 -26 87 -33 86 -6 0
-34 -7 -63 -16z"/>
<path d="M356 3815 c-3 -9 -9 -94 -12 -188 l-7 -172 64 0 64 0 1 41 c1 23 4
105 8 182 3 78 5 142 4 142 -2 1 -28 3 -59 6 -46 5 -57 3 -63 -11z"/>
<path d="M6529 3448 c-1 -144 -2 -173 -14 -260 -6 -53 -7 -53 83 -62 34 -4 42
-2 43 12 0 9 2 33 4 52 2 19 7 117 11 218 l7 182 -67 0 -66 0 -1 -142z"/>
<path d="M398 3082 c-32 -4 -32 -6 -17 -88 6 -32 12 -68 14 -79 5 -33 23 -118
35 -167 l12 -46 56 16 c32 8 58 16 60 18 2 1 -8 58 -22 126 -28 137 -34 172
-35 206 -1 24 -10 25 -103 14z"/>
<path d="M6446 2771 c-2 -3 -16 -51 -31 -106 -16 -55 -39 -128 -52 -163 -23
-61 -23 -82 -1 -82 5 0 25 -7 44 -16 40 -19 59 -14 67 18 3 13 23 79 45 148
61 194 62 175 -8 193 -33 8 -62 12 -64 8z"/>
<path d="M620 2367 c-30 -11 -56 -21 -58 -22 -7 -5 129 -305 150 -332 8 -9 22
-6 61 14 29 14 53 26 55 28 1 1 -24 58 -57 126 -32 68 -67 143 -77 165 l-19
42 -55 -21z"/>
<path d="M6148 2022 c-20 -37 -61 -105 -92 -152 l-55 -84 52 -37 52 -37 56 86
c31 48 75 122 98 164 l42 77 -50 26 c-28 14 -54 25 -58 25 -4 0 -25 -30 -45
-68z"/>
<path d="M973 1713 l-53 -36 37 -51 c45 -62 111 -144 162 -202 l38 -44 47 41
c46 40 46 41 29 63 -10 13 -54 68 -98 122 -44 55 -87 109 -95 121 l-15 21 -52
-35z"/>
<path d="M5768 1490 c-2 -6 -58 -65 -125 -133 l-122 -122 39 -42 c21 -24 42
-43 47 -43 12 0 263 253 263 265 0 9 -99 82 -102 75z"/>
<path d="M1471 1161 l-41 -49 73 -59 c39 -32 88 -70 107 -83 19 -13 37 -27 40
-30 3 -3 21 -17 41 -32 l36 -27 30 42 c16 23 32 47 36 53 4 6 -40 46 -101 92
-59 45 -123 95 -143 112 l-37 30 -41 -49z"/>
<path d="M5175 974 c-57 -40 -201 -127 -227 -137 -24 -9 -23 -18 7 -77 l25
-49 57 30 c81 42 257 155 261 167 3 10 -58 102 -67 101 -3 0 -28 -16 -56 -35z"/>
<path d="M2087 744 c-16 -31 -27 -57 -25 -59 4 -3 121 -57 178 -83 77 -34 148
-62 158 -62 8 0 55 112 49 115 -1 1 -45 19 -97 40 -52 21 -125 53 -162 72 -37
18 -69 33 -71 33 -1 0 -15 -25 -30 -56z"/>
<path d="M4475 630 c-60 -21 -138 -46 -172 -55 l-61 -17 15 -51 c8 -29 18 -56
23 -60 8 -9 177 37 290 80 l69 25 -24 53 c-13 29 -21 56 -17 59 10 11 -12 5
-123 -34z"/>
<path d="M2796 539 c-12 -40 -24 -104 -21 -110 3 -3 33 -12 67 -19 35 -7 68
-14 73 -16 44 -10 220 -32 226 -28 4 2 7 12 7 22 0 9 2 35 5 57 l5 40 -161 27
c-89 14 -170 29 -179 33 -11 4 -19 2 -22 -6z"/>
<path d="M3819 485 c-3 -2 -66 -7 -140 -10 -73 -4 -139 -8 -146 -10 -7 -2 -11
-27 -11 -64 l1 -61 121 6 c67 3 135 7 151 9 17 2 41 4 55 4 45 2 51 13 44 74
-7 56 -7 57 -39 57 -17 0 -34 -2 -36 -5z"/>
</g>
</svg>
